<?xml version="1.0" encoding="UTF-8" standalone="no"?>
<svg
   xmlns:dc="http://purl.org/dc/elements/1.1/"
   xmlns:cc="http://creativecommons.org/ns#"
   xmlns:rdf="http://www.w3.org/1999/02/22-rdf-syntax-ns#"
   xmlns:svg="http://www.w3.org/2000/svg"
   xmlns="http://www.w3.org/2000/svg"
   xmlns:sodipodi="http://sodipodi.sourceforge.net/DTD/sodipodi-0.dtd"
   xmlns:inkscape="http://www.inkscape.org/namespaces/inkscape"
   width="64"
   height="64"
   viewBox="0 0 16.933333 16.933334"
   version="1.1"
   id="svg8"
   inkscape:version="0.92.3 (2405546, 2018-03-11)"
   sodipodi:docname="29-Choice.svg"
   inkscape:export-filename="/home/wanzabuyumna/@WANZ_DESIGN/NICON STUDIO MAGANG/Style Line/Style Line/Icon 8/Icon 8.png"
   inkscape:export-xdpi="96"
   inkscape:export-ydpi="96">
  <defs
     id="defs2" />
  <sodipodi:namedview
     id="base"
     pagecolor="#ffffff"
     bordercolor="#959595"
     borderopacity="1"
     inkscape:pageopacity="0"
     inkscape:pageshadow="2"
     inkscape:zoom="7.9999996"
     inkscape:cx="12.781652"
     inkscape:cy="31.285073"
     inkscape:document-units="px"
     inkscape:current-layer="layer1"
     inkscape:document-rotation="0"
     showgrid="false"
     units="px"
     inkscape:window-width="1920"
     inkscape:window-height="1040"
     inkscape:window-x="0"
     inkscape:window-y="0"
     inkscape:window-maximized="1"
     inkscape:pagecheckerboard="0" />
  <metadata
     id="metadata5">
    <rdf:RDF>
      <cc:Work
         rdf:about="">
        <dc:format>image/svg+xml</dc:format>
        <dc:type
           rdf:resource="http://purl.org/dc/dcmitype/StillImage" />
      </cc:Work>
    </rdf:RDF>
  </metadata>
  <g
     inkscape:label="29-Choice"
     inkscape:groupmode="layer"
     id="layer1">
    <path
       style="color:#000000;font-style:normal;font-variant:normal;font-weight:normal;font-stretch:normal;font-size:medium;line-height:normal;font-family:sans-serif;font-variant-ligatures:normal;font-variant-position:normal;font-variant-caps:normal;font-variant-numeric:normal;font-variant-alternates:normal;font-feature-settings:normal;text-indent:0;text-align:start;text-decoration:none;text-decoration-line:none;text-decoration-style:solid;text-decoration-color:#000000;letter-spacing:normal;word-spacing:normal;text-transform:none;writing-mode:lr-tb;direction:ltr;text-orientation:mixed;dominant-baseline:auto;baseline-shift:baseline;text-anchor:start;white-space:normal;shape-padding:0;clip-rule:nonzero;display:inline;overflow:visible;visibility:visible;opacity:1;isolation:auto;mix-blend-mode:normal;color-interpolation:sRGB;color-interpolation-filters:linearRGB;solid-color:#000000;solid-opacity:1;vector-effect:none;fill:#000000;fill-opacity:1;fill-rule:nonzero;stroke:none;stroke-width:2.00000095;stroke-linecap:round;stroke-linejoin:round;stroke-miterlimit:4;stroke-dasharray:none;stroke-dashoffset:0;stroke-opacity:1;color-rendering:auto;image-rendering:auto;shape-rendering:auto;text-rendering:auto;enable-background:accumulate"
       d="M 3.0039062,2 C 2.4516417,1.9978835 2.0022299,2.4438291 2,2.9960938 V 14.003906 C 2.0022299,14.55617 2.4516417,15.002117 3.0039062,15 H 14.003906 C 14.553148,14.9978 14.997808,14.553109 15,14.003906 V 2.9960938 C 14.997808,2.4468527 14.553148,2.0021921 14.003906,2 Z M 48.996094,2 C 48.446513,2.0019276 48.001965,2.4465127 48,2.9960938 V 14.003906 c 0.0019,0.549581 0.446513,0.994166 0.996094,0.996094 h 10.998047 c 0.552453,0.0021 1.001941,-0.443641 1.003906,-0.996094 V 6.2988281 L 61.636719,5.765625 c 0.734827,-0.605548 0.287773,-1.7982003 -0.664063,-1.7714844 -0.224541,0.00782 -0.439866,0.09116 -0.611328,0.2363282 L 55.060547,8.6445312 53.708984,7.2929688 C 52.763857,6.3072109 51.305888,7.7671883 52.292969,8.7109375 l 2,1.9921875 c 0.364875,0.369872 0.952142,0.398662 1.351562,0.06641 L 58.998047,7.96875 V 13 H 50 V 4.0019531 h 6.998047 C 58.331729,4.0019531 58.331729,2 56.998047,2 Z M 4.0019531,4.0019531 H 13 V 13 H 4.0019531 Z m 2.9804688,1.984375 C 6.082214,5.9864415 5.6403822,7.0828045 6.2890625,7.7070312 L 7.0859375,8.5039062 6.296875,9.2929688 C 5.3182041,10.238191 6.7750264,11.687012 7.7148438,10.703125 L 8.5,9.9179688 9.2871094,10.703125 C 10.226209,11.729456 11.725563,10.236301 10.703125,9.2929688 L 9.9140625,8.5039062 10.710938,7.7070312 C 11.35958,7.0828045 10.917672,5.9864415 10.017578,5.9863281 9.7480978,5.9868951 9.4905391,6.0959286 9.3027344,6.2890625 L 8.5,7.0898438 7.6992188,6.2890625 C 7.5109983,6.0955507 7.2524313,5.9863281 6.9824219,5.9863281 Z M 42.005859,34.240234 V 32 c 0,-1.108724 0.874759,-2.000226 2,-2 h 2.988282 v 2.996094 c -0.002,0.861732 1.015281,1.32333 1.662109,0.753906 l 8.001953,-6.998047 c 0.455845,-0.398476 0.455845,-1.107346 0,-1.505859 L 48.65625,18.248047 c -0.177638,-0.157228 -0.405526,-0.24704 -0.642578,-0.251953 -0.561113,-0.01134 -1.021799,0.444675 -1.019531,1.005859 v 2.996094 H 44.871094 C 44.598212,20.949455 43.908636,20.065575 43,19.535156 V 18 C 42.999962,11.923275 38.11214,7.000189 32,7 25.887823,7.000189 21.001991,11.923275 21.001953,18 v 1.535156 c -0.908636,0.530419 -1.598363,1.414299 -1.871094,2.462891 h -2.123047 v -2.996094 c 0.0023,-0.561184 -0.458423,-1.01629 -1.019531,-1.005859 -0.236976,0.0038 -0.465015,0.09473 -0.642578,0.251953 L 7.34375,25.246094 c -0.455811,0.398513 -0.455811,1.107383 0,1.505859 L 15.345703,33.75 c 0.646829,0.569424 1.664114,0.107712 1.662109,-0.753906 V 30 h 2.988282 c 1.125203,-2.26e-4 2,0.891276 2,2 v 2.240234 l -1.001953,0.46875 c -0.0026,-3.7e-5 -0.004,-3.7e-5 -0.0078,0 -1.144479,0.551282 -2.284066,1.061246 -3.255859,1.824219 -0.971758,0.762973 -1.755966,1.857381 -1.986328,3.306641 l -0.791016,4.976562 C 14.370435,45.361036 14,46.130544 14,46.996094 14,47.771388 14.291371,48.468296 14.771484,49 14.290993,49.529512 14,50.22429 14,51 c 0,1.070665 0.567268,2.001046 1.388672,2.533203 C 15.141869,53.967357 15,54.462287 15,55 c 0,1.666885 1.359094,3.005859 3.003906,3.005859 H 19 C 19.0032,60.201878 20.805216,62 23.001953,62 h 17.996094 c 2.196737,0 4.000656,-1.79816 4.003906,-3.994141 h 0.996094 c 1.644812,0 3.003906,-1.338974 3.003906,-3.005859 0,-0.537713 -0.141717,-1.032643 -0.388672,-1.466797 0.821405,-0.532157 1.388672,-1.462538 1.388672,-2.533203 0,-0.77571 -0.290993,-1.470488 -0.771484,-2 0.480075,-0.531704 0.771484,-1.228612 0.771484,-2.003906 0,-0.86555 -0.37036,-1.635058 -0.953125,-2.179688 L 48.257812,39.839844 C 48.027639,38.390584 47.243276,37.296176 46.271484,36.533203 45.299692,35.77023 44.160066,35.260266 43.011718,34.708984 Z M 28.535156,18.324219 c 1.121726,0.462652 2.370557,0.677734 3.464844,0.677734 1.094249,0 2.343118,-0.215044 3.464844,-0.677734 0.735458,1.325102 2.033383,2.25248 3.53125,2.572265 V 23.0625 C 38.996094,26.917732 35.861203,30 32,30 28.138759,30 25.003906,26.917732 25.003906,23.0625 v -2.166016 c 1.497865,-0.319748 2.795792,-1.247163 3.53125,-2.572265 z m -5.53125,2.673828 V 23.0625 c 0,0.665689 0.07456,1.311358 0.212891,1.935547 h -0.210938 c -1.116396,0 -2.001953,-0.907036 -2.001953,-2 0,-1.092321 0.88451,-1.998904 2,-2 z m 17.992188,0 c 1.115452,0.0011 2,0.907679 2,2 0,1.092964 -0.885557,2 -2.001953,2 h -0.210938 c 0.138331,-0.624189 0.212891,-1.269858 0.212891,-1.935547 z M 29,31.494141 c 0.911849,0.320504 1.887269,0.495654 3,0.505859 1.112693,-0.01134 2.088151,-0.185544 3,-0.505859 v 2.08789 L 32.578125,36 h -1.15625 L 29,33.582031 Z m -2.205078,2.707031 1.835937,1.835937 c -0.708359,0.08655 -1.335761,0.406189 -1.798828,0.892579 l -1.599609,-1.996094 z m 10.410156,0 1.5625,0.732422 -1.599609,1.996094 C 36.704901,36.443298 36.0775,36.123774 35.369141,36.037109 Z M 23.367188,35.806641 26,39.099609 v 0.902344 H 23.007812 C 20.755176,40.001953 19.002117,41.803074 19,44 h -1.898438 l 0.613282,-3.849609 c 0.151181,-0.951723 0.555928,-1.495379 1.255859,-2.044922 0.69993,-0.549545 1.714548,-1.026971 2.878906,-1.587891 z m 17.265624,0 1.517579,0.710937 c 1.164359,0.56092 2.178975,1.038384 2.878906,1.587891 0.699931,0.549543 1.10464,1.093199 1.255859,2.044922 L 46.898438,44 H 45 c -0.0021,-2.196926 -1.755214,-3.998047 -4.007812,-3.998047 H 38 V 39.099609 Z M 28.998047,38 c 2.080059,0.0019 3.964784,0 6.003906,0 0.543686,0 0.996094,0.432631 0.996094,1.003906 v 0.998047 H 28.001953 V 39.003906 C 28.001953,38.432631 28.454362,38 28.998047,38 Z m -5.990235,4.003906 h 17.984376 c 1.125316,0 2.007812,0.890331 2.007812,2 v 0.169922 c -1.156157,0.412498 -1.998047,1.513529 -1.998047,2.822266 0,0.775332 0.283445,1.47224 0.763672,2.003906 -0.214299,0.23622 -0.388873,0.512354 -0.519531,0.808594 C 40.612569,50.352241 39.853644,50.721996 39,50.894531 v -0.896484 c -0.0022,-0.552265 -0.451604,-0.99821 -1.003906,-0.996094 h -4 c -0.549997,0.0011 -0.995855,0.446097 -0.998047,0.996094 v 1.003906 h -1.996094 v -1.003906 c -0.0022,-0.549997 -0.44805,-0.994998 -0.998047,-0.996094 h -4 C 25.451604,48.999855 25.002192,49.445782 25,49.998047 v 0.896484 C 24.146318,50.722185 23.38743,50.352241 22.753906,49.808594 22.623135,49.512279 22.448901,49.236258 22.234375,49 c 0.480076,-0.531666 0.763672,-1.228612 0.763672,-2.003906 0,-1.308737 -0.841889,-2.409768 -1.998047,-2.822266 v -0.169922 c 0,-1.109669 0.882459,-2 2.007812,-2 z M 17.003906,46 h 2.990235 c 0.571389,0 1.003906,0.452333 1.003906,0.996094 C 20.998047,47.539854 20.56553,48 19.994141,48 H 17.003906 C 16.432517,48 16,47.539854 16,46.996094 16,46.452333 16.432517,46 17.003906,46 Z m 27.001953,0 h 2.990235 C 47.567483,46 48,46.452333 48,46.996094 48,47.539854 47.567483,48 46.996094,48 H 44.005859 C 43.43447,48 43.001953,47.539854 43.001953,46.996094 43.001953,46.452333 43.43447,46 44.005859,46 Z m -27.001953,4.003906 h 2.990235 c 0.571389,0 1.003906,0.452333 1.003906,0.996094 0,0.543761 -0.432517,1.003906 -1.003906,1.003906 H 17.003906 C 16.432517,52.003906 16,51.543761 16,51 c 0,-0.543761 0.432517,-0.996094 1.003906,-0.996094 z m 27.001953,0 h 2.990235 C 47.567483,50.003906 48,50.456239 48,51 c 0,0.543761 -0.432517,1.003906 -1.003906,1.003906 h -2.990235 c -0.571389,0 -1.003906,-0.460145 -1.003906,-1.003906 0,-0.543761 0.432517,-0.996094 1.003906,-0.996094 z M 22.75,52.203125 c 0.691068,0.363969 1.443586,0.60854 2.246094,0.724609 L 25,53.998047 c -0.0021,0.555326 0.44858,1.006023 1.003906,1.003906 h 4 c 0.553021,-0.0011 1.000163,-0.450886 0.998047,-1.003906 v -0.996094 h 1.996094 v 0.996094 c -0.0021,0.55302 0.444988,1.002772 0.998047,1.003906 h 4 C 38.55142,55.004055 39.002117,54.553373 39,53.998047 l 0.0039,-1.070313 c 0.802507,-0.116031 1.555045,-0.360565 2.246094,-0.724609 0.130772,0.301606 0.297067,0.554431 0.513672,0.794922 C 41.284277,53.527332 41.001953,54.22531 41.001953,55 c 0,1.308775 0.80674,2.393493 1.998047,2.832031 V 58 c 0,1.09217 -0.876637,2 -2.001953,2 H 23.001953 C 21.876636,60 21,59.09217 21,58 V 57.832031 C 22.191307,57.393493 22.998047,56.308775 22.998047,55 c 0,-0.77469 -0.282324,-1.472668 -0.761719,-2.001953 0.216567,-0.240378 0.382881,-0.493353 0.513672,-0.794922 z M 17.994141,54 h 2.003906 C 20.569133,54.003402 21,54.452421 21,54.994141 c 0,0.54376 -0.43447,1.003906 -1.005859,1.003906 H 18.003906 C 17.432517,55.998047 17,55.543761 17,55 c 0,-0.540435 0.42793,-0.994331 0.994141,-1 z m 26.007812,0 h 2.003906 C 46.572033,54.007559 47,54.459565 47,55 c 0,0.543761 -0.432517,0.998047 -1.003906,0.998047 H 44.005859 C 43.43447,55.998047 43,55.537901 43,54.994141 43,54.452459 43.430867,54.003402 44.001953,54 Z"
       transform="scale(0.26458334)"
       id="path868"
       inkscape:connector-curvature="0"
       sodipodi:nodetypes="cccccccccccccccccccccccccccccccccccccccccccccccccccccccccccccccccccccccccccccccccccccccccccccccccccccccccccccccccccccccccccccccccccccccccccccccccccccccccccccccccccccccccccccccccccccccccccccccccccccccccccccccccccccccccccccccccccccccccccccccccccccccccccccccccccccccccc" />
  </g>
</svg>
